HIERARCHY
ROOT Hips
{
  OFFSET 179.979 97.3047 303.174
  CHANNELS 6 Xposition Yposition Zposition Zrotation Xrotation Yrotation
  JOINT Spine
  {
    OFFSET 0.000859786 9.92346 -1.22733
    CHANNELS 3 Zrotation Xrotation Yrotation
    JOINT Spine1
    {
      OFFSET 0 11.732 0
      CHANNELS 3 Zrotation Xrotation Yrotation
      JOINT Spine2
      {
        OFFSET 0 13.4588 0
        CHANNELS 3 Zrotation Xrotation Yrotation
        JOINT Neck
        {
          OFFSET 2.54812e-05 15.0278 0.877907
          CHANNELS 3 Zrotation Xrotation Yrotation
          JOINT Head
          {
            OFFSET 0 10.3218 3.14243
            CHANNELS 3 Zrotation Xrotation Yrotation
            End Site
            {
              OFFSET 0 0 0
            }
          }
        }
        JOINT LeftShoulder
        {
          OFFSET 6.10582 9.10629 0.757062
          CHANNELS 3 Zrotation Xrotation Yrotation
          JOINT LeftArm
          {
            OFFSET 0 12.9223 0
            CHANNELS 3 Zrotation Xrotation Yrotation
            JOINT LeftForeArm
            {
              OFFSET 0 27.4047 0
              CHANNELS 3 Zrotation Xrotation Yrotation
              JOINT LeftHand
              {
                OFFSET -1.28204e-05 27.6145 0
                CHANNELS 3 Zrotation Xrotation Yrotation
                End Site
                {
                  OFFSET 0 0 0
                }
              }
            }
          }
        }
        JOINT RightShoulder
        {
          OFFSET -6.1057 9.10638 0.757076
          CHANNELS 3 Zrotation Xrotation Yrotation
          JOINT RightArm
          {
            OFFSET 0 12.9223 0
            CHANNELS 3 Zrotation Xrotation Yrotation
            JOINT RightForeArm
            {
              OFFSET 0 27.4047 0
              CHANNELS 3 Zrotation Xrotation Yrotation
              JOINT RightHand
              {
                OFFSET 1.28428e-05 27.6145 1.44975e-05
                CHANNELS 3 Zrotation Xrotation Yrotation
                End Site
                {
                  OFFSET 0 0 0
                }
              }
            }
          }
        }
      }
    }
  }
  JOINT LeftUpLeg
  {
    OFFSET 9.12387 -6.65719 -0.0554031
    CHANNELS 3 Zrotation Xrotation Yrotation
    JOINT LeftLeg
    {
      OFFSET 0 40.5994 0
      CHANNELS 3 Zrotation Xrotation Yrotation
      JOINT LeftFoot
      {
        OFFSET 0 42.099 0
        CHANNELS 3 Zrotation Xrotation Yrotation
        JOINT LeftToeBase
        {
          OFFSET 0 15.7216 0
          CHANNELS 3 Zrotation Xrotation Yrotation
          End Site
          {
            OFFSET 0 0 0
          }
        }
      }
    }
  }
  JOINT RightUpLeg
  {
    OFFSET -9.12503 -6.6556 -0.0553527
    CHANNELS 3 Zrotation Xrotation Yrotation
    JOINT RightLeg
    {
      OFFSET 0 40.5994 0
      CHANNELS 3 Zrotation Xrotation Yrotation
      JOINT RightFoot
      {
        OFFSET 0 42.099 0
        CHANNELS 3 Zrotation Xrotation Yrotation
        JOINT RightToeBase
        {
          OFFSET 0 15.7216 0
          CHANNELS 3 Zrotation Xrotation Yrotation
          End Site
          {
            OFFSET 0 0 0
          }
        }
      }
    }
  }
}
MOTION
Frames:	15
Frame Time:	0.0333333
-211.665 98.2123 281.074 -0.23197 1.64554 1.86987 0.278582 -6.28936 0.0739943 0.558597 1.30737 0.121265 0.545811 7.90184 0.116607 9.21306 10.1378 1.76825 -6.30731 -28.142 5.19517 -87.6557 -18.0707 89.9426 6.70074 18.8769 -11.7852 43.8556 -27.8324 -1.2108 -6.6539 -8.83711 12.4646 90.5236 -15.2217 -90.2435 -15.8317 16.4828 24.5525 -30.8404 -13.3519 0.833159 4.52916 -10.8094 -6.17531 -173.528 10.5023 -9.79173 1.47985 -21.4495 -1.53094 3.10713 75.5002 -6.3238 -0.965277 26.367 -3.60229 177.734 9.06092 9.70152 -2.78007 -21.4405 4.01284 -17.9418 80.5087 21.8144 0.963535 26.3682 3.55537 
-211.662 98.2124 281.074 -0.232101 1.64194 1.87853 0.280519 -6.28935 0.0742291 0.562412 1.30737 0.121263 0.549758 7.90183 0.116152 9.20188 10.1633 1.76845 -6.30626 -28.1473 5.19543 -87.6596 -18.0758 89.9417 6.69316 18.8864 -11.7771 43.856 -27.8306 -1.21078 -6.65367 -8.83136 12.4708 90.5231 -15.2218 -90.2436 -15.8268 16.4914 24.5486 -30.8404 -13.3519 0.833159 4.53538 -10.8095 -6.17238 -173.531 10.4965 -9.78141 1.47977 -21.4437 -1.53163 3.1053 75.5003 -6.31944 -0.965277 26.367 -3.60229 177.734 9.05589 9.69476 -2.78065 -21.4403 4.02176 -17.9615 80.5024 21.8376 0.963535 26.3682 3.55537 
-211.647 98.2133 281.071 -0.228232 1.61744 1.93048 0.289242 -6.28935 0.0752868 0.579674 1.31547 0.121257 0.567584 7.90994 0.114098 9.19566 10.2693 1.76906 -6.3188 -28.1636 5.20587 -87.6738 -18.1048 89.9389 6.66931 18.9281 -11.7261 43.8461 -27.8203 -1.21066 -6.64965 -8.76953 12.4916 90.5328 -15.2535 -90.2414 -15.809 16.5332 24.5022 -30.844 -13.3519 0.833159 4.54962 -10.8026 -6.15983 -173.549 10.4738 -9.74633 1.48012 -21.4306 -1.5195 3.08714 75.4941 -6.28025 -0.965277 26.367 -3.60229 177.727 9.0115 9.66544 -2.77837 -21.4337 4.0703 -18.0896 80.4793 21.9843 0.963535 26.3682 3.55537 
-211.632 98.2142 281.068 -0.218672 1.59214 1.98796 0.294867 -6.28935 0.0759687 0.590827 1.32726 0.121253 0.579107 7.92173 0.112771 9.26856 10.34 1.75925 -6.37449 -28.1714 5.22754 -87.6759 -18.113 89.9387 6.64462 18.9519 -11.6762 43.8215 -27.8076 -1.21052 -6.66974 -8.69291 12.4957 90.5608 -15.3126 -90.2346 -15.7975 16.5693 24.4427 -30.8623 -13.3519 0.833159 4.53365 -10.7817 -6.15974 -173.569 10.4587 -9.75207 1.48044 -21.4296 -1.48112 3.01896 75.4925 -6.18429 -0.965277 26.367 -3.60229 177.708 8.98965 9.65775 -2.77948 -21.45 4.10822 -18.2175 80.4716 22.1273 0.963535 26.3682 3.55537 
-211.616 98.2149 281.062 -0.206597 1.57422 2.04256 0.30087 -6.28934 0.0753675 0.602674 1.33317 0.121249 0.591344 7.92762 0.11136 9.32458 10.4379 1.74818 -6.40065 -28.2082 5.24335 -87.6822 -18.0907 89.9404 6.57854 18.9623 -11.6347 43.8049 -27.7939 -1.21037 -6.70362 -8.66062 12.4913 90.5846 -15.3494 -90.2287 -15.7865 16.6063 24.4209 -30.8544 -13.3513 0.833157 4.50761 -10.7695 -6.17396 -173.593 10.455 -9.76895 1.48102 -21.4317 -1.4394 2.94019 75.4928 -6.07884 -0.965277 26.367 -3.60229 177.684 8.96645 9.65988 -2.77837 -21.4549 4.13968 -18.3323 80.4701 22.2552 0.963535 26.3682 3.55537 
-211.601 98.2155 281.052 -0.189705 1.55921 2.08323 0.308494 -6.28934 0.0749148 0.617778 1.33496 0.121243 0.606898 7.92944 0.109568 9.29814 10.5619 1.74637 -6.36583 -28.2806 5.23959 -87.7033 -18.0511 89.9433 6.48373 18.9641 -11.6215 43.8133 -27.7836 -1.21025 -6.73344 -8.65591 12.5105 90.5889 -15.3539 -90.2275 -15.7743 16.6437 24.4323 -30.821 -13.3404 0.833119 4.50268 -10.7471 -6.18499 -173.623 10.4566 -9.75383 1.47825 -21.4394 -1.42514 2.9292 75.4934 -6.04554 -0.965277 26.367 -3.60229 177.659 8.94916 9.65798 -2.77785 -21.4567 4.16633 -18.458 80.4808 22.3916 0.963535 26.3682 3.55537 
-211.588 98.2161 281.041 -0.170082 1.54139 2.10615 0.316545 -6.28933 0.0745207 0.635001 1.33956 0.121236 0.623876 7.93402 0.111547 9.22038 10.6685 1.74829 -6.30188 -28.3624 5.21988 -87.73 -18.0205 89.9455 6.41226 18.9639 -11.6459 43.8418 -27.7806 -1.21022 -6.7432 -8.65744 12.5293 90.5807 -15.3462 -90.2296 -15.7514 16.6878 24.4451 -30.7984 -13.3271 0.833073 4.51547 -10.7056 -6.18829 -173.648 10.4546 -9.72245 1.45947 -21.4545 -1.43504 2.96855 75.493 -6.06501 -0.965277 26.367 -3.60229 177.635 8.92891 9.64874 -2.77739 -21.4501 4.18722 -18.5992 80.5054 22.5376 0.963535 26.3682 3.55537 
-211.577 98.2168 281.028 -0.158963 1.52371 2.1175 0.324133 -6.28933 0.0740504 0.652467 1.3489 0.12123 0.640357 7.94337 0.118607 9.17182 10.7025 1.75069 -6.26174 -28.3983 5.20444 -87.7369 -18.0425 89.9438 6.4275 18.9805 -11.6921 43.8749 -27.7868 -1.21029 -6.74555 -8.66084 12.5571 90.5835 -15.3603 -90.229 -15.7367 16.7446 24.4364 -30.8051 -13.3224 0.833057 4.5195 -10.6734 -6.17933 -173.662 10.4462 -9.69245 1.43701 -21.4598 -1.45278 3.02137 75.4905 -6.09969 -0.965277 26.367 -3.60229 177.618 8.90218 9.62218 -2.76502 -21.4292 4.21093 -18.6956 80.512 22.6369 0.963535 26.3682 3.55537 
-211.566 98.2172 281.014 -0.153514 1.51525 2.12994 0.329514 -6.28932 0.0732654 0.664658 1.35812 0.121226 0.651933 7.9526 0.122867 9.19177 10.6502 1.75183 -6.26759 -28.3469 5.21182 -87.7114 -18.1373 89.9368 6.53752 19.0211 -11.7435 43.9135 -27.7962 -1.21039 -6.74638 -8.66448 12.5858 90.609 -15.4162 -90.2228 -15.7737 16.8063 24.4303 -30.8165 -13.3223 0.833056 4.51458 -10.6607 -6.16216 -173.674 10.4433 -9.66844 1.42228 -21.4523 -1.46584 3.05986 75.48 -6.12297 -0.965277 26.367 -3.60229 177.608 8.868 9.58021 -2.74347 -21.378 4.24583 -18.7862 80.5021 22.7296 0.963535 26.3682 3.55537 
-211.558 98.2172 280.999 -0.152128 1.51561 2.15352 0.333907 -6.28932 0.0722866 0.672687 1.36394 0.115904 0.660589 7.95842 0.117496 9.23968 10.5498 1.76656 -6.30097 -28.2404 5.24135 -87.6733 -18.2483 89.9286 6.65596 19.0701 -11.7892 43.9686 -27.7993 -1.21043 -6.74555 -8.66918 12.6272 90.6436 -15.4865 -90.2141 -15.8436 16.869 24.4444 -30.8124 -13.3241 0.833063 4.52213 -10.6547 -6.1541 -173.686 10.4473 -9.64919 1.41732 -21.4334 -1.46916 3.07159 75.4627 -6.1236 -0.965277 26.367 -3.60229 177.605 8.83623 9.53293 -2.72362 -21.3121 4.28937 -18.8869 80.4822 22.8321 0.963535 26.3682 3.55537 
-211.555 98.2171 280.981 -0.15128 1.51934 2.18741 0.340017 -6.28932 0.0714151 0.68265 1.36684 0.102386 0.672135 7.96132 0.103841 9.25313 10.4906 1.79323 -6.33479 -28.2013 5.27043 -87.6559 -18.2885 89.9258 6.68267 19.106 -11.8242 44.0371 -27.7965 -1.2104 -6.74428 -8.67428 12.6788 90.6652 -15.5132 -90.2085 -15.865 16.934 24.4513 -30.8016 -13.327 0.833073 4.55254 -10.6577 -6.144 -173.695 10.4601 -9.62406 1.41404 -21.4159 -1.47199 3.0806 75.4435 -6.11983 -0.965277 26.367 -3.60229 177.609 8.8134 9.48534 -2.70803 -21.2541 4.33679 -19.0084 80.462 22.9552 0.963535 26.3682 3.55537 
-211.557 98.2185 280.959 -0.152092 1.52436 2.21965 0.34856 -6.28931 0.0705571 0.697574 1.36757 0.0883795 0.688702 7.96204 0.0897031 9.22215 10.5114 1.81772 -6.35326 -28.3093 5.28038 -87.6712 -18.2417 89.9292 6.61685 19.1187 -11.8462 44.0958 -27.7896 -1.21032 -6.74346 -8.67421 12.7175 90.6692 -15.4834 -90.2118 -15.8056 17.005 24.4402 -30.7994 -13.3299 0.833083 4.58406 -10.6562 -6.12124 -173.696 10.4837 -9.59134 1.40591 -21.4097 -1.47659 3.08835 75.4253 -6.11685 -0.965277 26.367 -3.60229 177.616 8.8012 9.4388 -2.6903 -21.2108 4.38226 -19.1372 80.4467 23.0845 0.963535 26.3682 3.55537 
-211.563 98.2199 280.935 -0.157762 1.53686 2.24238 0.357823 -6.2893 0.0706271 0.714777 1.36819 0.0781003 0.707084 7.96266 0.0793448 9.18744 10.5622 1.82919 -6.35292 -28.4915 5.27463 -87.704 -18.1704 89.9342 6.54458 19.1118 -11.8475 44.1196 -27.7805 -1.21022 -6.74396 -8.65805 12.7477 90.6677 -15.4307 -90.2173 -15.7071 17.0813 24.4379 -30.8001 -13.332 0.83309 4.59032 -10.6301 -6.10322 -173.688 10.5149 -9.56191 1.39616 -21.4035 -1.48104 3.09397 75.405 -6.11469 -0.965277 26.367 -3.60229 177.624 8.79708 9.40277 -2.66609 -21.173 4.41809 -19.2237 80.4313 23.1634 0.963535 26.3682 3.55537 
-211.572 98.2228 280.912 -0.16606 1.55813 2.2576 0.364619 -6.2893 0.07103 0.727497 1.37072 0.0707075 0.720669 7.96519 0.0718792 9.21559 10.5475 1.82161 -6.35335 -28.6045 5.27076 -87.7241 -18.1397 89.9365 6.53781 19.1031 -11.8223 44.1078 -27.7748 -1.21016 -6.74232 -8.64556 12.7771 90.6755 -15.4148 -90.2191 -15.6522 17.1615 24.4713 -30.7867 -13.3322 0.833091 4.57555 -10.5916 -6.11429 -173.678 10.5522 -9.54556 1.39699 -21.391 -1.48259 3.09922 75.3793 -6.11683 -0.965277 26.367 -3.60229 177.634 8.79358 9.38289 -2.64319 -21.1266 4.44162 -19.2514 80.4097 23.1822 0.963535 26.3682 3.55537 
-211.581 98.2281 280.891 -0.175101 1.58107 2.2691 0.367427 -6.28547 0.071192 0.732108 1.37833 0.06451 0.725988 7.97282 0.0656057 9.35244 10.4147 1.78975 -6.39907 -28.586 5.27765 -87.707 -18.1618 89.935 6.59766 19.1277 -11.7928 44.0901 -27.7785 -1.2102 -6.73958 -8.64549 12.7902 90.7015 -15.4697 -90.2133 -15.6882 17.2314 24.5173 -30.7432 -13.3285 0.833078 4.57196 -10.5596 -6.1283 -173.671 10.5825 -9.53365 1.39573 -21.3654 -1.48467 3.09924 75.3476 -6.11575 -0.965277 26.367 -3.60229 177.647 8.7906 9.35597 -2.61898 -21.0503 4.46978 -19.2615 80.3774 23.1873 0.963535 26.3682 3.55537 
